<svg xmlns="http://www.w3.org/2000/svg" xmlns:xlink="http://www.w3.org/1999/xlink" width="311.588" height="194.552" viewBox="0 0 311.588 194.552"><defs><linearGradient id="a" x1="0.391" y1="0.192" x2="0.895" y2="0.794" gradientUnits="objectBoundingBox"><stop offset="0" stop-color="#f81c8f"/><stop offset="1" stop-color="#ffa353"/><stop offset="1" stop-color="#dba429"/></linearGradient></defs><g transform="translate(1.806 0.253)"><g transform="translate(27.769 0)"><g transform="translate(0 194.299)"><path d="M71.021,153.362" transform="translate(-71.021 -153.362)" fill="none" stroke="#f59b70" stroke-linecap="round" stroke-miterlimit="10" stroke-width="1"/></g><path d="M308.056,203.171c-1.886,2.486-2.21,8.169-1.469,12.31.811,4.521.211,20.752-24.764,25.422s-37.853-15.032-37.853-15.032l-.329-.4s2.784,25.132,26.861,24.775c0,0,12.271-.7,9.7,6.168-3.054,8.175-10.362,1.858-10.362,1.858l.017.02c-35.441,11.812-44.277-.5-61.528-11.64-7.04-4.549-13.642-5.686-19.086-5.295l-.318.025s-13.419,33.932-54.383,20.707l-.023-.011s-16.679,3.89-27.23-2.669c-2.218-1.376-4.085-3.6-3.775-5.99.27-2.086,2.531-4.513,6.947-2.874,8.338,3.091,33.78,7.727,46.718-24.378,0,0-41.088,37.735-68.579-12.935l1.146-1.776a4.785,4.785,0,0,0-3.271-7.325l-2.666-.422s8.4.222,6.289,6.736c-2.331,7.189-11.423,5.075-14.734,2.427-4.493-3.595-7.049-15.955,4.673-19.227a9.708,9.708,0,0,1,11.612,5.441,18.433,18.433,0,0,0,7.924,9.585c22.8,12.445,33.485.236,36.972-5.453a4.345,4.345,0,0,0,.006-4.6L135.47,197.6c-19.227,16.352-27.491-4.85-27.491-4.85l.262-.059a5.454,5.454,0,0,0,2.793-9.014h0c1.438.267,1.74,3.313,1.16,4.65a5.591,5.591,0,0,1-5.619,3.845,8.234,8.234,0,0,1-6.95-3.018c-3.232-3.935-2.714-7.567-1.526-9.881a8.53,8.53,0,0,1,6.756-4.3,10.588,10.588,0,0,1,10.762,6.1c4.85,9.253,15.139,3.122,15.139,3.122l.006-.079c-7.491-19.68-10.933-49.3,14.444-79.648,0,0,19.927-21.628,53.249-20.043,46.929,2.235,72.872,46.633,67.028,90.59a3.379,3.379,0,0,0,.011.754c.417,2.539,2.621,8.2,9.228,4.563a12.014,12.014,0,0,0,4.048-3.958c1.709-2.545,5.65-6.911,11.5-4.465,4.9,2.049,5.154,6.337,4.611,9.36-.678,3.752-4.2,6.556-7.933,5.4A8.7,8.7,0,0,1,285,185.8a15.074,15.074,0,0,0,1.97.932,9.631,9.631,0,0,0,2.581.146,17.409,17.409,0,0,1-2.815,7.187,23.36,23.36,0,0,1-16.17,8.864c-10.962,1.2-13.478-7.845-13.478-7.845l-1.692,2.807a8,8,0,0,0,2.339,10.818,36.191,36.191,0,0,0,18.07,6.59,21.172,21.172,0,0,0,13.388-3.595c3.1-2.173,6.179-6.449,7.9-12.487,2.213-7.744,6.224-11.232,9.6-12.791a9.186,9.186,0,0,1,10.185,1.835c2.764,2.663,4.991,6.9.065,12.034,0,0-4.49,5.211-13.025.808" transform="translate(-69.976 -84.34)" stroke="#e48862" stroke-linecap="round" stroke-linejoin="round" stroke-width="0.5" fill="url(#a)"/></g><g transform="translate(41.368 44.25)"><path d="M0,0,1.206,26.6" transform="translate(21.153 27.119)" fill="none" stroke="#4f14ff" stroke-linecap="round" stroke-width="3"/><rect width="38.543" height="27.282" rx="1.362" transform="translate(0 2.533) rotate(-3.768)" fill="#f6f5f5" stroke="#4f14ff" stroke-linecap="round" stroke-miterlimit="10" stroke-width="3"/><g transform="translate(14.046 3.231)"><path d="M86.575,102.064l.073,1.185a6.97,6.97,0,0,1,2.044.36,4,4,0,0,1,1.531,1.008,4.8,4.8,0,0,1,.833,1.106,2.67,2.67,0,0,1,.335,1.07,1.294,1.294,0,0,1-.343.974,1.33,1.33,0,0,1-.946.462,1.375,1.375,0,0,1-1.467-1.078,2.489,2.489,0,0,0-1.855-1.717L87.059,110q1.381.291,2.21.549a4.527,4.527,0,0,1,1.5.8A4.1,4.1,0,0,1,91.9,112.73a4.518,4.518,0,0,1,.481,1.816,4.894,4.894,0,0,1-.445,2.379,4.63,4.63,0,0,1-1.621,1.889,6.167,6.167,0,0,1-2.66.988l.166,2.733a2.593,2.593,0,0,1-.068.951.537.537,0,0,1-.538.329.613.613,0,0,1-.569-.208,1.372,1.372,0,0,1-.2-.735l-.183-2.964a6.943,6.943,0,0,1-2.28-.467,5.322,5.322,0,0,1-1.672-1.05,4.752,4.752,0,0,1-1.036-1.368,3.745,3.745,0,0,1-.4-1.436,1.33,1.33,0,0,1,.355-.974,1.361,1.361,0,0,1,1-.484,1.444,1.444,0,0,1,.847.177,1.191,1.191,0,0,1,.512.619,13.706,13.706,0,0,0,.6,1.346,2.658,2.658,0,0,0,.718.833,2.987,2.987,0,0,0,1.216.532l-.31-5.1a13.2,13.2,0,0,1-2.514-.757,4.138,4.138,0,0,1-1.689-1.323,4.708,4.708,0,0,1,.253-5.5,5.387,5.387,0,0,1,3.389-1.619l-.073-1.163q-.055-.921.636-.963T86.575,102.064Zm-.935,7.615-.256-4.2a3.817,3.817,0,0,0-1.393.811,2.04,2.04,0,0,0,.129,2.674A4.4,4.4,0,0,0,85.64,109.679Zm1.593,3.175.293,4.808a3.04,3.04,0,0,0,1.658-.994,2.258,2.258,0,0,0,.507-1.6,1.874,1.874,0,0,0-.676-1.441A4.769,4.769,0,0,0,87.233,112.854Z" transform="translate(-80.841 -101.206)" fill="#4f14ff"/></g></g><g transform="translate(247.075 42.675)"><line x1="1.9" y2="7.836" transform="translate(16.435 76.749)" fill="none" stroke="#070708" stroke-linecap="round" stroke-miterlimit="10" stroke-width="1"/><path d="M7.522,0,0,32.094" transform="translate(20.042 37.186)" fill="none" stroke="#4f14ff" stroke-linecap="round" stroke-width="3"/><path d="M.5,0H54.606a.5.5,0,0,1,.5.5V33.283a.5.5,0,0,1-.5.5H.5a.5.5,0,0,1-.5-.5V.5A.5.5,0,0,1,.5,0Z" transform="matrix(0.978, 0.208, -0.208, 0.978, 7.033, 0)" fill="#f6f5f5" stroke="#4f14ff" stroke-linecap="round" stroke-width="3"/><path d="M166.123,104.366l10.1,2.078-4.283,20.8-10.708-2.2" transform="translate(-126.599 -90.666)" fill="none" stroke="#4f14ff" stroke-linecap="round" stroke-linejoin="round" stroke-width="3"/><path d="M167.016,104.406l-10.1-2.078-4.283,20.8,10.707,2.2" transform="translate(-142.191 -94.367)" fill="none" stroke="#4f14ff" stroke-linecap="round" stroke-linejoin="round" stroke-width="3"/></g><g transform="translate(0 50.521)"><path d="M0,0,6.948,32.223" transform="translate(34.478 37.525)" fill="none" stroke="#4f14ff" stroke-linecap="round" stroke-width="3"/><rect width="55.102" height="33.78" rx="1.362" transform="matrix(0.973, -0.231, 0.231, 0.973, 0, 12.714)" fill="#f6f5f5" stroke="#4f14ff" stroke-linecap="round" stroke-miterlimit="10" stroke-width="3"/><path d="M75.612,125.867" transform="translate(-34.919 -59.488)" fill="none" stroke="#070708" stroke-linecap="round" stroke-miterlimit="10" stroke-width="1"/><path d="M156.323,122.917" transform="translate(111.572 -64.842)" fill="none" stroke="#070708" stroke-linecap="round" stroke-miterlimit="10" stroke-width="1"/><line x2="1.759" y2="7.869" transform="translate(43.83 80.835)" fill="none" stroke="#070708" stroke-linecap="round" stroke-miterlimit="10" stroke-width="1"/><path d="M75.293,108.394l-8.984,10.421,12.173,4.312" transform="translate(-51.805 -91.202)" fill="#f6f5f5" stroke="#4f14ff" stroke-linecap="round" stroke-linejoin="round" stroke-width="3"/><path d="M73.293,107.4l12.279,6.209-9.646,8.826" transform="translate(-39.127 -92.999)" fill="#f6f5f5" stroke="#4f14ff" stroke-linecap="round" stroke-linejoin="round" stroke-width="3"/></g><g transform="translate(47.429 103.751)"><path d="M78.005,130.484s11.741,18.388,30.427,19.286,36.82-7.755,36.82-7.755-14.48,15.212-35.444,13.3C88.24,153.339,78.005,130.484,78.005,130.484Z" transform="translate(-78.005 -104.338)" fill="#4f14ff" stroke="#d58562" stroke-linecap="round" stroke-linejoin="round" stroke-width="0.5"/><path d="M195.322,132.673c.9,6.646-3.355,19.105-20.065,23.775s-32.522-.718-42.405-14.734c0,0,43.664,28.392,62.35-11.437Z" transform="translate(21.541 -104.714)" fill="#4f14ff" stroke="#d58562" stroke-linecap="round" stroke-linejoin="round" stroke-width="0.5"/><path d="M84.723,122.6s10.064,13.115,26.413,5.568c0,0-6.767,6.649-14.134,6.292S85.083,125.83,84.723,122.6Z" transform="translate(-65.812 -118.655)" fill="#4f14ff" stroke="#d58562" stroke-linecap="round" stroke-linejoin="round" stroke-width="0.5"/><path d="M137.606,128.1s12.848,12.127,31.232-6.871a5.654,5.654,0,0,1,.566-.034c.7,0-3.082,11.1-13.627,14.047C145.333,138.162,138.591,133.438,137.606,128.1Z" transform="translate(30.171 -121.196)" fill="#4f14ff" stroke="#d58562" stroke-linecap="round" stroke-linejoin="round" stroke-width="0.5"/><path d="M111.665,158.6c12.535,5.385,45.04-.118,53.964-18.447,0,0-2.156,13.656-23,22.1,0,0-10.835,4.853-31.506-2.035,0,0-15.691-7.308-27.252-3.415C83.872,156.8,92.976,150.57,111.665,158.6Z" transform="translate(-67.356 -86.796)" fill="#4f14ff" stroke="#d58562" stroke-linecap="round" stroke-linejoin="round" stroke-width="0.5"/><path d="M118.448,140.832c-.18-.324,34.169,24.721,65.792,14.12a69.713,69.713,0,0,1-32.207,4.313C139.1,157.646,122.85,148.827,118.448,140.832Z" transform="translate(-4.603 -85.562)" fill="#4f14ff" stroke="#d58562" stroke-linecap="round" stroke-linejoin="round" stroke-width="0.5"/><path d="M112.525,142.207s8.383-6.925,18.295,2.41" transform="translate(-15.351 -87.546)" fill="none" stroke="#d58562" stroke-linecap="round" stroke-linejoin="round" stroke-width="1"/></g><g transform="translate(101.426 48.367)"><g transform="translate(58.001 0)"><path d="M123.584,107.144s9.248-8.82,20.928-3.249,12.4,19.944,12.4,19.944.951,17.959-13.783,26.227" transform="translate(-111.661 -100.642)"/><ellipse cx="24.917" cy="20.678" rx="24.917" ry="20.678" transform="translate(0 49.55) rotate(-83.868)" fill="#fff"/><ellipse cx="15.273" cy="12.675" rx="15.273" ry="12.675" transform="translate(3.414 47.933) rotate(-83.868)" fill="#050606"/><ellipse cx="7.487" cy="6.213" rx="7.487" ry="6.213" transform="translate(7.533 35.803) rotate(-83.868)" fill="#fff"/></g><path d="M109.362,135.78l4.313-1.078s10.563,2.55,19.938,1.078c6.584-1.034,11.549-4.382,16.356-11.142" transform="translate(-75.089 -59.565)" fill="none" stroke="#4f14ff" stroke-linecap="round" stroke-linejoin="round" stroke-width="3"/><g transform="translate(0 0)"><path d="M156.921,107.144s-9.248-8.82-20.928-3.249-12.4,19.944-12.4,19.944-.951,17.959,13.783,26.227" transform="translate(-122.401 -100.642)"/><ellipse cx="24.917" cy="20.678" rx="24.917" ry="20.678" transform="translate(5.323 53.967) rotate(-96.132)" fill="#fff"/><ellipse cx="15.273" cy="12.675" rx="15.273" ry="12.675" transform="translate(17.825 50.64) rotate(-96.132)" fill="#050606"/><ellipse cx="7.487" cy="6.213" rx="7.487" ry="6.213" transform="translate(26.555 37.13) rotate(-96.132)" fill="#fff"/></g></g></g></svg>