<svg xmlns="http://www.w3.org/2000/svg" xmlns:xlink="http://www.w3.org/1999/xlink" width="315.618" height="42.968" viewBox="0 0 315.618 42.968"><defs><linearGradient id="a" x1="0.5" x2="0.5" y2="1" gradientUnits="objectBoundingBox"><stop offset="0" stop-color="#f81c8f"/><stop offset="1" stop-color="#ffa353"/></linearGradient></defs><path d="M195.425,42.54V9h5.74v3.28a8.72,8.72,0,0,1,3.055-2.6,9.262,9.262,0,0,1,4.449-1.045,9.935,9.935,0,0,1,5.269,1.435,10.1,10.1,0,0,1,3.73,4.08,13.108,13.108,0,0,1,1.373,6.13,13.361,13.361,0,0,1-1.373,6.17,10.334,10.334,0,0,1-3.73,4.162,9.73,9.73,0,0,1-5.269,1.476,9.165,9.165,0,0,1-4.407-1.025,9.462,9.462,0,0,1-3.1-2.583V42.54Zm8.795-28.065a5.949,5.949,0,0,0-2.214,2.317,7.243,7.243,0,0,0-.841,3.568,7.242,7.242,0,0,0,.841,3.567,5.936,5.936,0,0,0,2.214,2.317,5.787,5.787,0,0,0,5.9-.021,6.089,6.089,0,0,0,2.214-2.337,7.327,7.327,0,0,0,.841-3.607,7.126,7.126,0,0,0-.841-3.547,5.82,5.82,0,0,0-2.214-2.275,5.924,5.924,0,0,0-2.973-.779A5.733,5.733,0,0,0,204.22,14.476Zm97.437,16.605a8.829,8.829,0,0,1-3.506-2.726,6.909,6.909,0,0,1-1.415-3.813h5.781a3.152,3.152,0,0,0,1.292,2.174,4.494,4.494,0,0,0,2.809.86,4.365,4.365,0,0,0,2.562-.655,1.985,1.985,0,0,0,.922-1.681,1.772,1.772,0,0,0-1.128-1.66,21.191,21.191,0,0,0-3.587-1.21,30.468,30.468,0,0,1-4.162-1.271,7.218,7.218,0,0,1-2.787-2.01,5.388,5.388,0,0,1-1.169-3.649A5.888,5.888,0,0,1,298.356,12a7.285,7.285,0,0,1,3.116-2.46,11.681,11.681,0,0,1,4.776-.9,9.75,9.75,0,0,1,6.478,2.03,7.516,7.516,0,0,1,2.665,5.473H309.9a2.972,2.972,0,0,0-1.127-2.152,5.081,5.081,0,0,0-5.084-.226,1.83,1.83,0,0,0-.841,1.6,1.879,1.879,0,0,0,1.147,1.742,17.892,17.892,0,0,0,3.568,1.21,30.23,30.23,0,0,1,4.059,1.271,7.182,7.182,0,0,1,2.768,2.03,5.58,5.58,0,0,1,1.21,3.629,6.018,6.018,0,0,1-1.087,3.526,7.148,7.148,0,0,1-3.116,2.439,11.8,11.8,0,0,1-4.735.882A11.963,11.963,0,0,1,301.657,31.081Zm-24.949-.451a10.245,10.245,0,0,1-4.059-4.12,12.626,12.626,0,0,1-1.455-6.15,12.86,12.86,0,0,1,1.435-6.191,10.017,10.017,0,0,1,4.018-4.1,12.9,12.9,0,0,1,11.747-.04,9.8,9.8,0,0,1,3.976,3.956,11.97,11.97,0,0,1,1.415,5.883,13.6,13.6,0,0,1-.164,2.214H277.016a5.649,5.649,0,0,0,1.722,3.854,5.31,5.31,0,0,0,3.731,1.394,4.686,4.686,0,0,0,4.55-2.747h6.191a10.345,10.345,0,0,1-3.772,5.391,11.007,11.007,0,0,1-6.847,2.112A11.852,11.852,0,0,1,276.708,30.63ZM278.84,14.64a5.677,5.677,0,0,0-1.784,3.587H287.84a4.555,4.555,0,0,0-1.6-3.547,5.664,5.664,0,0,0-3.813-1.332A5.209,5.209,0,0,0,278.84,14.64Zm-24.826,16.44a8.836,8.836,0,0,1-3.505-2.726,6.915,6.915,0,0,1-1.414-3.813h5.781a3.149,3.149,0,0,0,1.291,2.174,4.489,4.489,0,0,0,2.808.86,4.37,4.37,0,0,0,2.563-.655,1.987,1.987,0,0,0,.922-1.681,1.773,1.773,0,0,0-1.128-1.66,21.22,21.22,0,0,0-3.587-1.21,30.467,30.467,0,0,1-4.162-1.271,7.221,7.221,0,0,1-2.788-2.01,5.393,5.393,0,0,1-1.168-3.649A5.887,5.887,0,0,1,250.714,12a7.3,7.3,0,0,1,3.116-2.46,11.687,11.687,0,0,1,4.776-.9,9.75,9.75,0,0,1,6.478,2.03,7.516,7.516,0,0,1,2.665,5.473h-5.494a2.973,2.973,0,0,0-1.128-2.152,5.081,5.081,0,0,0-5.084-.226,1.832,1.832,0,0,0-.841,1.6,1.878,1.878,0,0,0,1.148,1.742,17.859,17.859,0,0,0,3.567,1.21,30.188,30.188,0,0,1,4.059,1.271,7.168,7.168,0,0,1,2.768,2.03,5.57,5.57,0,0,1,1.21,3.629,6.018,6.018,0,0,1-1.086,3.526,7.159,7.159,0,0,1-3.116,2.439,11.81,11.81,0,0,1-4.736.882A11.966,11.966,0,0,1,254.014,31.081ZM173.45,30.63a10.482,10.482,0,0,1-4.121-4.12,12.351,12.351,0,0,1-1.5-6.15,12.085,12.085,0,0,1,1.538-6.151,10.683,10.683,0,0,1,4.2-4.12,12.87,12.87,0,0,1,11.89,0,10.685,10.685,0,0,1,4.2,4.12A12.084,12.084,0,0,1,191.2,20.36a11.84,11.84,0,0,1-1.579,6.15,10.924,10.924,0,0,1-4.264,4.12,12.4,12.4,0,0,1-6.006,1.456A11.963,11.963,0,0,1,173.45,30.63Zm1.865-15.251a6.939,6.939,0,0,0-1.661,4.981,7.05,7.05,0,0,0,1.62,4.982,5.333,5.333,0,0,0,4.08,1.742,5.971,5.971,0,0,0,2.931-.759,5.516,5.516,0,0,0,2.193-2.275,7.675,7.675,0,0,0,.82-3.69,6.836,6.836,0,0,0-1.7-4.981,5.594,5.594,0,0,0-4.162-1.742A5.461,5.461,0,0,0,175.315,15.378Zm-42.7,15.251a10.254,10.254,0,0,1-3.977-4.1,12.74,12.74,0,0,1-1.435-6.17,12.737,12.737,0,0,1,1.435-6.17,10.257,10.257,0,0,1,3.977-4.1,11.508,11.508,0,0,1,5.822-1.455,11.193,11.193,0,0,1,6.99,2.111,10.267,10.267,0,0,1,3.711,5.925h-6.191a4.519,4.519,0,0,0-1.661-2.317,4.817,4.817,0,0,0-2.89-.841,4.731,4.731,0,0,0-3.9,1.784,7.893,7.893,0,0,0-1.436,5.063,7.82,7.82,0,0,0,1.436,5.022,4.734,4.734,0,0,0,3.9,1.784,4.353,4.353,0,0,0,4.55-3.116h6.191a10.476,10.476,0,0,1-3.73,5.863,11,11,0,0,1-6.971,2.173A11.508,11.508,0,0,1,132.613,30.63Zm94.792.247a7.951,7.951,0,0,1-3.218-3.321,10.971,10.971,0,0,1-1.169-5.228V9h5.74v12.5a5.89,5.89,0,0,0,1.353,4.162,4.794,4.794,0,0,0,3.69,1.455,4.844,4.844,0,0,0,3.731-1.455,5.89,5.89,0,0,0,1.353-4.162V9h5.782V31.717h-5.782v-2.87A7.583,7.583,0,0,1,236,31.163a8.985,8.985,0,0,1-3.874.84A9.622,9.622,0,0,1,227.406,30.876ZM102.4,30.118a14.071,14.071,0,0,1-5.33-5.227A14.624,14.624,0,0,1,95.1,17.326,14.544,14.544,0,0,1,97.067,9.8a14.071,14.071,0,0,1,5.33-5.227,15.42,15.42,0,0,1,14.781,0A13.969,13.969,0,0,1,122.466,9.8a14.661,14.661,0,0,1,1.948,7.524,14.742,14.742,0,0,1-1.948,7.564,13.929,13.929,0,0,1-5.309,5.227,15.386,15.386,0,0,1-14.76,0ZM105.2,9a7.86,7.86,0,0,0-3.1,3.3A10.838,10.838,0,0,0,101,17.326a10.967,10.967,0,0,0,1.107,5.043,7.968,7.968,0,0,0,3.1,3.342,8.859,8.859,0,0,0,4.572,1.168,8.745,8.745,0,0,0,4.55-1.168,8.01,8.01,0,0,0,3.075-3.342,10.967,10.967,0,0,0,1.107-5.043A10.838,10.838,0,0,0,117.4,12.3,7.9,7.9,0,0,0,114.327,9a8.857,8.857,0,0,0-4.55-1.148A8.972,8.972,0,0,0,105.2,9Zm56.314,22.714q-7.258,0-7.257-7.052V13.718h-2.706V9h2.706V3.386h5.781V9h5.084v4.715h-5.084V24.706a2.173,2.173,0,0,0,.553,1.66,2.723,2.723,0,0,0,1.866.512h2.665v4.838Zm-86.182,0V9h5.74V31.717Zm-11.193,0V19.171a5.89,5.89,0,0,0-1.353-4.162,4.793,4.793,0,0,0-3.69-1.456,4.91,4.91,0,0,0-3.751,1.456,5.831,5.831,0,0,0-1.373,4.162V31.717h-5.74V9h5.74v2.829a7.934,7.934,0,0,1,2.931-2.317,9.074,9.074,0,0,1,3.915-.841,8.751,8.751,0,0,1,6.56,2.563,9.808,9.808,0,0,1,2.5,7.154V31.717Zm-27.306,0V9h5.74V31.717Zm-11.4,0V13.1L17.772,31.717H13.426L5.719,13.1V31.717H-.022V3.1H6.5l9.1,21.279L24.7,3.1H31.18V31.717ZM75.726,5.333a3.188,3.188,0,0,1-1-2.4,3.187,3.187,0,0,1,1-2.4,3.78,3.78,0,0,1,5.043,0,3.187,3.187,0,0,1,1,2.4,3.188,3.188,0,0,1-1,2.4,3.782,3.782,0,0,1-5.043,0Zm-38.5,0a3.188,3.188,0,0,1-1-2.4,3.187,3.187,0,0,1,1-2.4,3.781,3.781,0,0,1,5.044,0,3.187,3.187,0,0,1,1,2.4,3.188,3.188,0,0,1-1,2.4,3.783,3.783,0,0,1-5.044,0Z" transform="translate(0.022 0.427)" fill="url(#a)"/></svg>